# xmcd
#
# Track frame offsets:
#	150
#	10923
#	22456
#	31223
#	41342
#	52619
#	67418
#	86141
#	100286
#	103761
#	113235
#	127758
#	137714
#	152858
#	164603
#	179692
#
# Disc length: 2591
#
# Revision: 2
# Processed by: cddbd v1.5.1PL0 Copyright (c) Steve Scherf et al.
# Submitted via: EasyCDDAExtractor 5.1.0
# Normalized: r1:TRMNUM
#
DISCID=de0a1d10
DTITLE=SYSTEM OF A DOWN - STEAL THIS ALBUM
DYEAR=1900
DGENRE=
TTITLE0=Chic 'n' Stu
TTITLE1=Innervision  
TTITLE2=Bubbles 
TTITLE3=Boom ! 
TTITLE4=Nuguns  
TTITLE5=A.D.D. 
TTITLE6=Mr. Jack 
TTITLE7=I-E-A-I-A-I-O 
TTITLE8=36
TTITLE9=Pictures 
TTITLE10=Highway Song 
TTITLE11=F**K The System
TTITLE12=Ego Brain 
TTITLE13=The Tawaves  
TTITLE14=RouLette
TTITLE15=Streamline 
EXTD=
EXTT0=
EXTT1=
EXTT2=
EXTT3=
EXTT4=
EXTT5=
EXTT6=
EXTT7=
EXTT8=
EXTT9=
EXTT10=
EXTT11=
EXTT12=
EXTT13=
EXTT14=
EXTT15=
PLAYORDER=
